<svg overflow="visible" style="display: block;" width="79.8024" height="121.747" viewBox="0 0 79.8024 121.747" fill="none" xmlns="http://www.w3.org/2000/svg">
<path id="Segment 1" d="M0.524575 3.77401C0.601672 1.56622 2.45539 -0.171181 4.6568 0.01347C17.4393 1.08565 29.8122 5.14404 40.7693 11.8849C52.8637 19.3255 62.8187 29.7792 69.6596 42.2227C76.5004 54.6662 79.9927 68.6729 79.7944 82.8714C79.6148 95.7347 76.4117 108.356 70.4678 119.723C69.4441 121.681 66.9839 122.315 65.0785 121.197L52.1753 113.627C50.2699 112.509 49.6447 110.063 50.631 108.087C54.5841 100.164 56.7126 91.4378 56.8367 82.5508C56.9794 72.3279 54.465 62.2431 49.5396 53.2838C44.6141 44.3245 37.4466 36.7977 28.7385 31.4405C21.1685 26.7834 12.6599 23.9046 3.85276 22.9973C1.65525 22.7709 -0.0746198 20.9327 0.00247805 18.7249L0.524575 3.77401Z" fill="#DE3535"/>
</svg>
